<svg xmlns="http://www.w3.org/2000/svg" width="101" height="53" viewBox="0 0 101 53"><g><g><g><g><path fill="#ee4d64" d="M96.328 33.407a3.042 3.042 0 0 1-3.036 3.04 3.042 3.042 0 0 1-3.036-3.04V18.89a3.042 3.042 0 0 1 3.036-3.04 3.042 3.042 0 0 1 3.036 3.04zM86.233 39.33a3.044 3.044 0 0 1-3.041 3.041 3.044 3.044 0 0 1-3.041-3.04V12.966a3.044 3.044 0 0 1 3.041-3.04 3.044 3.044 0 0 1 3.041 3.04zm7.055-27.503a7.02 7.02 0 0 0-3.055.696c-.231-3.688-3.303-6.618-7.048-6.618a7.02 7.02 0 0 0-3.061.698C79.86 2.946 76.804.05 73.08.05a7.071 7.071 0 0 0-7.063 7.063v11.708a2.011 2.011 0 0 0 4.023 0V7.113a3.044 3.044 0 0 1 3.04-3.04 3.044 3.044 0 0 1 3.04 3.04v38.07a3.044 3.044 0 0 1-3.04 3.041 3.044 3.044 0 0 1-3.04-3.04V33.474c0-1.11-.901-2.01-2.012-2.01H40.901a2.011 2.011 0 0 0 0 4.022h25.117v9.696a7.071 7.071 0 0 0 7.063 7.064c3.723 0 6.78-2.896 7.043-6.553a7.02 7.02 0 0 0 3.06.699c3.746 0 6.818-2.93 7.049-6.618a7.02 7.02 0 0 0 3.055.695 7.071 7.071 0 0 0 7.064-7.063V18.89a7.071 7.071 0 0 0-7.064-7.063z"/></g><g><path fill="#ee4d64" d="M17.877 42.37a3.044 3.044 0 0 1-3.04-3.04V12.966a3.044 3.044 0 0 1 3.04-3.04 3.044 3.044 0 0 1 3.04 3.04V39.33a3.044 3.044 0 0 1-3.04 3.041zM7.774 36.448a3.044 3.044 0 0 1-3.041-3.04V18.888a3.044 3.044 0 0 1 3.04-3.04 3.044 3.044 0 0 1 3.041 3.04v14.518a3.044 3.044 0 0 1-3.04 3.04zm25.259-4.984c-1.111 0-2.012.9-2.012 2.011v11.708a3.044 3.044 0 0 1-3.04 3.041 3.044 3.044 0 0 1-3.04-3.04V7.113a3.044 3.044 0 0 1 3.04-3.041 3.044 3.044 0 0 1 3.04 3.04v11.708c0 1.111.9 2.012 2.012 2.012H60.16a2.011 2.011 0 0 0 0-4.023H35.044V7.113A7.071 7.071 0 0 0 27.981.05c-3.723 0-6.78 2.896-7.043 6.552a7.02 7.02 0 0 0-3.061-.698c-3.745 0-6.817 2.93-7.048 6.618a7.02 7.02 0 0 0-3.056-.696A7.071 7.071 0 0 0 .71 18.89v14.518a7.071 7.071 0 0 0 7.063 7.063 7.02 7.02 0 0 0 3.056-.696c.23 3.688 3.303 6.619 7.048 6.619 1.096 0 2.134-.251 3.061-.699.263 3.657 3.32 6.553 7.043 6.553a7.071 7.071 0 0 0 7.063-7.064V33.475c0-1.11-.9-2.01-2.011-2.01z"/></g><g><path fill="#ee4d64" d="M31.01 26.261v.675a2.011 2.011 0 0 0 4.023 0v-.675a2.011 2.011 0 0 0-4.023 0z"/></g><g><path fill="#ee4d64" d="M70.043 26.046v-.675a2.011 2.011 0 0 0-4.023 0v.675a2.011 2.011 0 1 0 4.023 0z"/></g></g></g></g></svg>